<svg width="661" height="498" viewBox="0 0 661 498" fill="none" xmlns="http://www.w3.org/2000/svg">
<path fill-rule="evenodd" clip-rule="evenodd" d="M635.509 497.97C604.715 562.74 554.704 620.204 488.496 647.768C423.104 674.993 350.272 661.211 281.208 645.477C213.113 629.964 145.892 607.578 96.2846 558.418C44.7252 507.325 -7.60884 440.314 1.50485 368.301C10.4689 297.47 101.493 272.001 140.131 211.964C175.669 156.742 162.705 73.9348 215.81 35.3049C271.527 -5.22435 349.294 -5.91946 416.01 11.2832C481.106 28.0681 531.753 75.9459 574.533 127.801C615.714 177.72 643.451 235.872 653.969 299.724C665.027 366.852 664.721 436.528 635.509 497.97Z" fill="#479DCB"/>
<path fill-rule="evenodd" clip-rule="evenodd" d="M635.509 497.97C604.715 562.74 554.704 620.204 488.496 647.768C423.104 674.993 350.272 661.211 281.208 645.477C213.113 629.964 145.892 607.578 96.2846 558.418C44.7252 507.325 -7.60884 440.314 1.50485 368.301C10.4689 297.47 101.493 272.001 140.131 211.964C175.669 156.742 162.705 73.9348 215.81 35.3049C271.527 -5.22435 349.294 -5.91946 416.01 11.2832C481.106 28.0681 531.753 75.9459 574.533 127.801C615.714 177.72 643.451 235.872 653.969 299.724C665.027 366.852 664.721 436.528 635.509 497.97Z" fill="url(#paint0_linear_1_474)"/>
<path fill-rule="evenodd" clip-rule="evenodd" d="M635.509 497.97C604.715 562.74 554.704 620.204 488.496 647.768C423.104 674.993 350.272 661.211 281.208 645.477C213.113 629.964 145.892 607.578 96.2846 558.418C44.7252 507.325 -7.60884 440.314 1.50485 368.301C10.4689 297.47 101.493 272.001 140.131 211.964C175.669 156.742 162.705 73.9348 215.81 35.3049C271.527 -5.22435 349.294 -5.91946 416.01 11.2832C481.106 28.0681 531.753 75.9459 574.533 127.801C615.714 177.72 643.451 235.872 653.969 299.724C665.027 366.852 664.721 436.528 635.509 497.97Z" fill="url(#paint1_linear_1_474)"/>
<defs>
<linearGradient id="paint0_linear_1_474" x1="784.501" y1="305" x2="247.043" y2="300.967" gradientUnits="userSpaceOnUse">
<stop stop-color="#F9F9FA"/>
<stop offset="1" stop-color="#479DCB"/>
</linearGradient>
<linearGradient id="paint1_linear_1_474" x1="412.501" y1="-89" x2="650.281" y2="604.69" gradientUnits="userSpaceOnUse">
<stop stop-color="#F9F9FA"/>
<stop offset="1" stop-color="white" stop-opacity="0"/>
</linearGradient>
</defs>
</svg>
